<?xml version="1.0" encoding="UTF-8"?>
<!-- Generator: visioncortex VTracer 0.6.4 -->
<svg version="1.1" xmlns="http://www.w3.org/2000/svg" width="1015" height="374">
<path d="M0 0 C0.7344433593750068 0.15565429687499943 1.4688867187500136 0.31130859374999886 2.2255859375 0.4716796875 C26.285579006634237 5.737759428712863 47.31382137913374 19.191481370845892 65 36 C65.52223144531251 36.495000000000005 66.04446289062503 36.99000000000001 66.58251953125 37.5 C68.2534232464343 39.0932894321827 69.91005492903798 40.70008889850388 71.5625 42.3125 C72.35043945312498 43.06817260742187 72.35043945312498 43.06817260742187 73.154296875 43.839111328125 C75.83932493475413 46.50057871119587 77.24912609535102 48.313124760318885 78 52 C78.99000000000001 52.33 79.98000000000002 52.66 81 53 C90.95983114677517 65.28689449882546 97.05109056534144 83.15327169602426 102 98 C102.3441796875 98.83015625000002 102.688359375 99.6603125 103.04296875 100.515625 C104.09101246615478 103.23626093254876 104.69830528358045 105.90134229685174 105.3125 108.75 C106.69032734135573 114.46621702131674 108.7239228659721 120.7239228659721 113 125 C114.87321947639265 125.16053814864634 114.87321947639265 125.16053814864634 117 125.125 C117.72187500000001 125.12757812500001 118.44375000000002 125.13015625 119.1875 125.1328125 C121.02089414663686 125.19695276203697 121.02089414663686 125.19695276203697 122 124 C123.51928037810029 123.92820036020322 125.04167481740063 123.91607992700563 126.5625 123.9375 C127.80193359375 123.95103515624999 127.80193359375 123.95103515624999 129.06640625 123.96484375 C130.02353515624998 123.98224609375 130.02353515624998 123.98224609375 131 124 C131.32999999999998 123.34 131.66000000000003 122.68 132 122 C132.66000000000003 122 133.32 122 134 122 C134.18328626863212 117.95892774744559 134.3450793678703 113.91725682993788 134.5 109.875 C134.57480590820313 107.93596801757812 134.57480590820313 107.93596801757812 134.651123046875 105.957763671875 C134.95509711273343 97.25734614188164 135.01065340853626 88.57635926864094 134.92578125 79.87109375 C134.9133790588379 78.31609161376953 134.9133790588379 78.31609161376953 134.90072631835938 76.72967529296875 C134.85811378143052 71.52002727284636 134.79432735159378 66.31198072256197 134.69921875 61.10302734375 C134.68012768061158 59.1689536281975 134.66186070908498 57.23487155191698 134.64453125 55.30078125 C134.62070877075195 54.40515975952148 134.5968862915039 53.50953826904296 134.5723419189453 52.58677673339844 C134.54666196844045 46.51641440735169 134.54666196844045 46.51641440735169 136.772216796875 43.981201171875 C146.91946256606644 39.51196492569633 160.95284019633658 41.691997266965046 171.75 42.8125 C172.47525878906248 42.882512207031255 173.20051757812502 42.95252441406251 173.94775390625 43.024658203125 C182.51320686457984 44.023861426805496 188.5598107580425 47.224363786502536 194 54 C197.57611903499014 60.2293686415957 197.9926329463686 65.91537247356385 196.3203125 72.796875 C195.60133730888555 75.22084850147161 194.836706260425 77.61439107890727 194 80 C194.99 80.33 195.98000000000002 80.66 197 81 C197 82.32 197 83.63999999999999 197 85 C197.99 85 198.98000000000002 85 200 85 C200.061875 84.27812499999999 200.12374999999997 83.55625 200.1875 82.8125 C202.09463416554001 76.21088173466916 209.25156998540677 72.18388005360626 215 69 C228.36474982903076 62.92511371407693 241.5087833653772 63.9929505273565 255 69 C259.76420665153336 71.79883062152727 262.024150250876 74.3823021134283 265 79 C267.9472953723306 80.15811388300838 267.9472953723306 80.15811388300838 271 80 C271.16499999999996 79.29875 271.3299999999999 78.5975 271.5 77.875 C274.77784185130713 71.59246978499476 281.53921471542765 68.31613057371462 288 66 C299.01635818866384 63.20684535287421 314.0849764225296 63.68271441228889 324.1484375 69.171875 C327.4312333435546 71.41581139939179 330.3028789770631 74.0871092952281 333 77 C336.0458440256871 72.43123396146935 336.12065426147933 68.29371739951301 336.2109375 62.89453125 C336.23929687500004 61.746621093749994 336.2676562500001 60.5987109375 336.296875 59.416015625 C336.34920890054707 57.002114462266974 336.3934032912049 54.58802387447484 336.4296875 52.173828125 C336.46062499999994 51.02978515625 336.4915625 49.8857421875 336.5234375 48.70703125 C336.5432568359374 47.660070800781256 336.5630761718751 46.6131103515625 336.58349609375 45.534423828125 C336.7209423828125 44.698063964843755 336.858388671875 43.86170410156251 337 43 C342.0040006549509 39.66399956336605 346.5493477500686 39.75481165355305 352.3125 40.8125 C356.70769230769224 41.7076923076923 356.70769230769224 41.7076923076923 359 44 C359.5783691406251 46.1989746093753 359.5783691406251 46.1989746093753 360.03515625 48.90234375 C360.20466796874996 49.87494140625 360.37417968750003 50.847539062500005 360.548828125 51.849609375 C360.71833984374996 52.86861328124999 360.88785156250003 53.8876171875 361.0625 54.9375 C361.40569824230465 56.94693208784332 361.7506727419824 58.95606183193644 362.09765625 60.96484375 C362.32207397460934 62.304703369140626 362.32207397460934 62.304703369140626 362.551025390625 63.671630859375 C362.97481447892915 66.142583485817 362.97481447892915 66.142583485817 364 69 C364.68707031250005 68.6390625 365.374140625 68.278125 366.08203125 67.90625 C366.98308593750005 67.4421875 367.884140625 66.978125 368.8125 66.5 C370.15248046875 65.80390625000001 370.15248046875 65.80390625000001 371.51953125 65.09375 C374 64 374 64 377 64 C377 63.34 377 62.68000000000001 377 62 C376.34000000000003 62 375.67999999999995 62 375 62 C375 60.02000000000001 375 58.03999999999999 375 56 C376.485 55.504999999999995 376.485 55.504999999999995 378 55 C378.3434244886489 53.669230106485315 378.67619873632145 52.33568021267408 379 51 C382 49 382 49 385.8125 49.1875 C390.5865068414997 49.33586949964442 392.5149558604073 47.18199682310639 396 44 C400.84557691196744 41.73873077441519 405.73041546018146 41.34979343615498 411 42 C415.5405405405405 44.08108108108112 415.5405405405405 44.08108108108112 417 47 C417.231884057971 54.304347826086826 417.231884057971 54.304347826086826 416 58 C414.15234375 59.16796874999997 414.15234375 59.16796874999997 411.9375 60.1875 C411.20402343750004 60.5316796875 410.47054687499997 60.875859375000005 409.71484375 61.23046875 C408.86599609375 61.61138671875 408.86599609375 61.61138671875 408 62 C408.9814649963379 62.027591476440435 408.9814649963379 62.027591476440435 409.9827575683594 62.05574035644531 C416.82972310838136 62.25088343843541 423.6759165669197 62.46494193644118 430.52197265625 62.689697265625 C433.0726055702737 62.77099040690962 435.62339391689125 62.84755642858768 438.17431640625 62.919189453125 C441.85370701984766 63.02335025729752 445.5321922584144 63.14483782926911 449.2109375 63.26953125 C450.905294342041 63.311926803588875 450.905294342041 63.311926803588875 452.6338806152344 63.35517883300781 C461.14327169288777 63.66877706585831 470.0039653813451 64.69997377374631 477 70 C479.38246609370026 72.62892810339343 480 73.38834177621771 480 77 C482.2298885415362 77.89229738356957 482.2298885415362 77.89229738356957 485 78 C487.76782914223395 76.25066061537574 487.76782914223395 76.25066061537574 490.375 73.75 C500.3010890427788 65.1580627102828 509.2725488105124 64.79289459592816 522.036865234375 64.759765625 C524.2951359441572 64.75007451584956 526.5524898410254 64.7190226633601 528.810546875 64.6875 C543.2468033715431 64.57636423144872 543.2468033715431 64.57636423144872 549 68 C550.1165974841002 71.68072954453733 550.1520576543106 75.33354422161794 550.208740234375 79.160400390625 C550.2280308532714 80.38259780883789 550.247321472168 81.60479522705079 550.2671966552734 82.86402893066406 C550.3252883025766 88.45416695243932 550.3745158069331 94.0441640857432 550.405029296875 99.634521484375 C550.4227805653396 102.57442334378342 550.4575084218951 105.51335477606341 550.507568359375 108.452880859375 C550.568301885059 112.02495403895497 550.5985761062407 115.59613450836514 550.6082019805908 119.16869926452637 C550.6207452871607 121.16713806159441 550.6626691125746 123.16532467996478 550.7054290771484 125.16334533691406 C550.6851125729636 134.27454158661857 548.4848382453657 140.17173867496547 544 148 C543.3091788897741 149.65680065665381 542.6379473460339 151.3221306946277 542 153 C541.3478646098847 154.34050052412576 540.6862003139543 155.67661368023116 540 157 C541.8329640431407 157.31465882740582 543.6663939911193 157.62660393166254 545.5 157.9375 C546.5209375 158.1115234375 547.541875 158.285546875 548.59375 158.46484375 C556.9832837764582 159.78292417130135 565.2002927438961 160.28667706839514 573.6875 160.5625 C575.473173828125 160.62727539062502 575.473173828125 160.62727539062502 577.294921875 160.693359375 C584.2733604297405 160.9324249698606 591.1920476556371 160.98772030962132 598.171142578125 160.722412109375 C601.5086577333939 161.0499131650012 603.3175860441784 162.0242547246676 606 164 C607.409423986082 166.81884797216387 607.1350515872477 169.1772137186858 607.145263671875 172.329833984375 C607.1503015899658 173.30327758789065 607.1503015899658 173.30327758789065 607.1554412841797 174.29638671875 C607.164957089246 176.44630841705103 607.1668946823376 178.59615229065523 607.16796875 180.74609375 C607.1711808187155 182.2382052863893 607.1745448520252 183.73031650277585 607.1780548095703 185.22242736816406 C607.1840475968014 188.35214976334768 607.1858945492706 191.48184453587527 607.185302734375 194.611572265625 C607.1852010850937 198.62448259519192 607.1988553810844 202.63721609387565 607.2160749435425 206.65008449554443 C607.2271862459581 209.7324149137958 607.2292222143856 212.81470245913818 607.2286930084229 215.89705085754395 C607.2298743598084 217.3766446150803 607.2343048124189 218.85623943638052 607.2420253753662 220.33581352233887 C607.2518082009807 222.40425932681285 607.2489542669191 224.47231965051992 607.242919921875 226.540771484375 C607.2443449401856 227.7183250427246 607.2457699584961 228.89587860107423 607.2472381591797 230.10911560058594 C607 233 607 233 605 236 C600.3502300946415 238.10447378184085 596.1110314949161 238.19270671988988 591.109375 237.94140625 C590.3647198486328 237.9140086364746 589.6200646972657 237.88661102294918 588.8528442382813 237.85838317871094 C586.4846816261448 237.77018648198782 584.1174695672021 237.66756521747936 581.75 237.5625 C579.3968135886337 237.46245202924706 577.0436519822706 237.36584771699052 574.6900024414063 237.27732849121094 C573.2315076807207 237.22207712554922 571.7732368841542 237.16032563446151 570.3153686523438 237.09046936035156 C566.6941259448683 236.94919792123676 563.2492681138683 237.04674561421564 559.650634765625 237.484130859375 C552.4007036725864 238.28320959375174 545.1265932524732 238.11008853959788 537.8429164886475 238.07516479492188 C535.1101389108309 238.06222619911676 532.3774108344196 238.05583996440856 529.6446075439453 238.051025390625 C522.8503259955013 238.0377563937716 516.0560911433988 238.01372012547205 509.2618408203125 237.9896240234375 C503.5207321716489 237.96964197043968 497.7796423683609 237.9541007698674 492.03850746154785 237.94406127929688 C489.386410238218 237.93772330615832 486.7343934291994 237.9252137342977 484.0823211669922 237.912353515625 C473.5905049181696 237.8812222224784 463.1564970869898 238.20194407940005 452.6802673339844 238.77391052246094 C439.0604294012776 239.49099539223522 425.40264117075003 238.86407695326687 411.784423828125 238.351806640625 C402.68627595945475 238.01491053515207 393.7341972506915 237.95204594644622 384.65284729003906 238.70982360839844 C380.5722270645888 239.02608431311234 377.00825901054134 238.7933613383275 373 238 C370.8556273681812 237.91054150983825 368.7087316398679 237.86984698285744 366.5625 237.875 C364.95568359375 237.87113281249998 364.95568359375 237.87113281249998 363.31640625 237.8671875 C360.03355394190066 237.93059838897932 360.03355394190066 237.93059838897932 356.96484375 238.5 C352.03537948415976 239.1216467251503 347.208954246763 239.1431360099723 342.24609375 239.1328125 C340.7174745941162 239.13424758911134 340.7174745941162 239.13424758911134 339.15797424316406 239.13571166992188 C337.01229795261156 239.13638963792846 334.86661957012996 239.13456217480456 332.720947265625 239.13037109375 C329.44477724008607 239.12501190417743 326.1687439514858 239.13033198299928 322.892578125 239.13671875 C320.8020830322462 239.13605800878827 318.7115880241904 239.13477692959003 316.62109375 239.1328125 C315.15838294982905 239.13584884643558 315.15838294982905 239.13584884643558 313.66612243652344 239.13894653320313 C308.97230809572034 239.12282800127775 304.62985799590433 238.829276646459 300 238 C297.5728989170045 237.90946839510258 295.14363170006436 237.86936285866557 292.71484375 237.8671875 C292.02508956909173 237.86586822509764 291.3353353881836 237.86454895019529 290.6246795654297 237.86318969726563 C288.3955730573971 237.8612835031634 286.1665936216334 237.86759139593443 283.9375 237.875 C282.79725372314454 237.87632934570314 282.79725372314454 237.87632934570314 281.63397216796875 237.877685546875 C270.07884146544893 237.8935199157719 258.57947496832475 238.2452672177128 247.0419921875 238.89306640625 C236.07650911456085 239.46729902054312 226.28019502631707 239.43931899785264 217 233 C216.68417968749998 232.321953125 216.368359375 231.64390625 216.04296875 230.9453125 C215.03770216664782 228.5357112566332 215.03770216664782 228.5357112566332 211.25 227.75 C205.74807568251907 227.31517049748942 201.73687413012067 230.00429306168633 197.3134765625 232.9267578125 C189.66624591172422 237.87600656797605 181.55835567344838 238.39131216228145 172.625 238.375 C171.70323974609374 238.37338867187498 170.7814794921875 238.37177734375 169.831787109375 238.3701171875 C158.1350869011021 238.15945886292263 149.68679796175286 234.36589477920177 141 226.5625 C131.61747834105654 216.7845463937448 129.78281197465822 204.9327061646658 129 192 C128.91750000000002 190.9519921875 128.83499999999998 189.903984375 128.75 188.82421875 C128.48123359955036 182.88616109006642 129.57706199754108 178.61588190394082 132.22265625 173.2890625 C133.21020082328863 170.38101667111994 133.0451724704967 168.87773944791473 132 166 C129.14685348412848 163.39429801865302 127.0541360793838 162.58784467328198 123.234375 162.26953125 C121.90019531250005 162.148681640625 121.90019531250005 162.148681640625 120.5390625 162.025390625 C119.61867187500002 161.95513671875 118.69828124999998 161.8848828125 117.75 161.8125 C116.34621093750002 161.689716796875 116.34621093750002 161.689716796875 114.9140625 161.564453125 C112.61010353481169 161.36461994944796 110.30581383906889 161.17690610308009 108 161 C107.70093750000001 161.6329296875 107.40187500000002 162.265859375 107.09375 162.91796875 C106 165.00000000000003 106 165.00000000000003 104.5 166.3125 C102.26746359724012 168.82410345310487 101.81302977354727 171.81667573280345 101 175 C97.52893839207007 187.94972984496926 90.41811188848823 199.9577723797313 83 211 C82.58621093750003 211.66128906250003 82.172421875 212.322578125 81.74609375 213.00390625 C80.88578707272416 214.37214306884096 79.95271762400563 215.694423996733 79 217 C78.34000000000003 217 77.68 217 77 217 C76.56687499999998 217.86624999999998 76.56687499999998 217.86624999999998 76.125 218.75 C75.75374999999997 219.4925 75.3825 220.235 75 221 C74.71125 221.65999999999997 74.42250000000001 222.32 74.125 223 C72.74180937263498 225.45900555976016 71.1179134377266 227.14682574198923 69 229 C68.34000000000003 229 67.68 229 67 229 C67 229.65999999999997 67 230.32 67 231 C49.32412445346631 249.99450214147936 23.67817076166432 263.8697839453174 -2.2578125 266.203125 C-6.7628557972898875 266.31622232127086 -9.422772111391083 265.7355272089362 -13 263 C-15.000000000000028 260.99999999999994 -15.000000000000028 260.99999999999994 -15.8125 258.5 C-16.77870269341605 255.86272530321844 -16.77870269341605 255.86272530321844 -19.125 254.75 C-25.796531927554298 253.00960036672495 -32.5334337706 252.83943081175107 -39.38671875 252.75390625 C-41.217697879220054 252.72250563102688 -43.04867100923744 252.69075367202856 -44.879638671875 252.65869140625 C-45.82858001708985 252.6433233642578 -46.7775213623047 252.62795532226562 -47.755218505859375 252.61212158203125 C-62.078357362434076 252.36973802808643 -76.39027062584307 252.0501874055753 -90.6875 251.125 C-91.82340576171873 251.0586938476563 -92.95931152343752 250.99238769531246 -94.129638671875 250.924072265625 C-101.59956378251161 250.3891605477292 -110.41195883634293 249.58804116365707 -116 244 C-116 243.34000000000003 -116 242.68 -116 242 C-117.0828125 241.59781250000003 -117.0828125 241.59781250000003 -118.1875 241.1875 C-120.99766383049474 240.00098638268003 -123.48416556552016 238.72514361221477 -126 237 C-126 236.34000000000003 -126 235.68 -126 235 C-126.68062499999999 234.83500000000004 -127.36125 234.66999999999996 -128.0625 234.5 C-133.5393976074311 231.70328632812027 -137.47192496465738 226.55429293479222 -140 221 C-140.66 221 -141.32 221 -142 221 C-142.32999999999998 220.01 -142.66 219.01999999999998 -143 218 C-144.175625 216.85531249999997 -144.175625 216.85531249999997 -145.375 215.6875 C-148.12041700137303 212.87671592716572 -149.3374576194002 210.53290255877454 -151 207 C-151.801107624895 205.74266837177495 -152.614566001201 204.493155615207 -153.4375 203.25 C-155.89134091633383 199.41402579645404 -157.53254654582128 195.46284191622064 -159.10546875 191.19921875 C-160.00691973663822 188.77259996161968 -160.00691973663822 188.77259996161968 -162 186 C-162.72747207358958 183.20946259271489 -163.39114471988756 180.44095567052003 -164 177.625 C-165.16554585694493 171.97278058305255 -165.16554585694493 171.97278058305255 -167.08984375 166.55859375 C-168.49878802803283 162.59782764651712 -168.43212438343173 158.61269962327165 -168.5625 154.4375 C-168.6226819131224 152.74856503386258 -168.68635999106095 151.05975022347587 -168.75390625 149.37109375 C-168.77783447265625 148.62786865234375 -168.8017626953125 147.8846435546875 -168.826416015625 147.118896484375 C-169.00160343695825 144.98042724421842 -169.46900558407765 143.07427090558664 -170 141 C-170.98826551433876 117.33976092141879 -168.04799810202718 91.82807515023654 -156 71 C-155.47019531249998 69.96166015625 -155.47019531249998 69.96166015625 -154.9296875 68.90234375 C-151.35620093804778 62.01775949952565 -146.75389724877058 55.84627506191005 -142.17626953125 49.60791015625 C-141.13715990187347 48.18749172140696 -140.1123839508293 46.75661146486313 -139.08984375 45.32421875 C-138.5651953125 44.5984765625 -138.04054687500002 43.87273437499999 -137.5 43.125 C-136.83484375 42.2007421875 -136.83484375 42.2007421875 -136.15625 41.2578125 C-135.58390624999998 40.6351953125 -135.58390624999998 40.6351953125 -135 40 C-134.34 40 -133.68 40 -133 40 C-132.7460546875 39.409609375 -132.49210937499998 38.819218750000005 -132.23046875 38.2109375 C-130.86493092074056 35.75730444806079 -129.45908316471426 34.42155093942688 -127.3125 32.625 C-126.58933593750001 32.01656249999999 -125.86617187499999 31.408125 -125.12109375 30.78125 C-124.42113281249999 30.1934375 -123.72117187500001 29.605625000000003 -123 29 C-122.47535156250001 28.515312499999993 -121.95070312499999 28.030625 -121.41015625 27.53125 C-105.22845100821263 12.708313900652783 -82.35489681343518 3.0923014136407474 -61 -1 C-59.97261718750002 -1.2036718749999977 -58.945234374999984 -1.4073437500000026 -57.88671875 -1.6171875 C-38.90650724472255 -4.755478417067394 -18.761416009981502 -4.166420377828558 0 0 Z " fill="#F4F5F4" transform="translate(242,45)"/>
<path d="M0 0 C4.149940793892483 3.5086749720395005 8.103802014239932 7.211879628269358 12 11 C12.559775390624964 11.532060546875002 13.119550781250041 12.064121093750003 13.6962890625 12.6123046875 C33.78381671306943 32.06213304757512 45.406647712641416 59.79322106718382 50 87 C50.27457031250003 88.6048828125 50.27457031250003 88.6048828125 50.5546875 90.2421875 C53.01105008108442 110.97044015792304 50.056701579888966 131.47446554378178 43 151 C42.7744140625 151.633896484375 42.548828125 152.26779296875 42.31640625 152.9208984375 C37.085343759135185 167.4097593761807 29.680534846436558 179.979620238074 20 192 C19.546088867187507 192.567509765625 19.092177734375014 193.13501953125 18.62451171875 193.7197265625 C9.000312303700866 205.662735121602 -1.601240011780419 215.31755881110234 -15 223 C-16.515937500000007 223.87785156249998 -16.515937500000007 223.87785156249998 -18.0625 224.7734375 C-28.200109522970934 230.24870302066114 -38.88844765724269 233.15365389908567 -50 236 C-50.6082763671875 236.18900878906248 -51.216552734375 236.37801757812503 -51.84326171875 236.57275390625 C-54.90382305173776 237.17904577094646 -57.890118851378276 237.05980540670424 -61 237 C-61.58832957900023 222.65431627515323 -62.061210353364004 208.32207876922564 -62.2109375 193.96484375 C-62.225217895507825 192.72755523681644 -62.23949829101562 191.49026672363277 -62.25421142578125 190.21548461914063 C-62.31154054188451 185.16769285340513 -62.36693374367172 180.12002811523854 -62.4013671875 175.072021484375 C-62.429025846868115 171.30686725953 -62.47477653537089 167.5422774984607 -62.5234375 163.77734375 C-62.52831680297851 162.0912424468994 -62.52831680297851 162.0912424468994 -62.533294677734375 160.37107849121094 C-62.741927872087984 146.89584729541448 -66.41112284915187 134.27952870214818 -75.86328125 124.375 C-77 123 -77 123 -77 121 C-77.56074218750001 120.7305859375 -78.121484375 120.46117187499999 -78.69921875 120.18359375 C-81.15232711553827 118.92163817316111 -83.4669688540533 117.51414368560165 -85.8125 116.0625 C-98.060476277883 108.70297039442994 -111.03421879352928 105.70240774721566 -125.28125 108.6875 C-138.03033989959573 112.63051749472032 -149.57949014332007 120.14263558674512 -156.8125 131.5 C-165.2963490792469 147.809729407195 -164.6583623218223 164.97129945695036 -164.73822021484375 182.912353515625 C-164.7580468876895 186.42609195093905 -164.79998418569642 189.9395668372814 -164.83984375 193.453125 C-164.91439092101663 200.3019822416117 -164.9651338718255 207.15082843440132 -165 214 C-166.2791621432432 213.38036751953723 -167.55607445061008 212.75608920470756 -168.83203125 212.1298828125 C-169.54335205078127 211.78274230957032 -170.2546728515625 211.43560180664065 -170.987548828125 211.07794189453125 C-175.6360352017829 208.58804386453085 -179.22333486653878 204.61930408623368 -183 201 C-183.680625 200.39414062499998 -184.36124999999998 199.78828125 -185.0625 199.1640625 C-208.7243846074648 177.3149835681071 -218.82745732568847 141.13425794341654 -220.26171875 110.05859375 C-221.3717386772102 73.00859529067301 -207.70463153641853 38.37219096521963 -182.388916015625 11.47998046875 C-133.91181253468312 -38.90260838886935 -54.52259740496436 -43.841269843173095 0 0 Z " fill="#2C9793" transform="translate(295,73)"/>
<path d="M0 0 C10.031209651412723 7.163048534073312 16.981715867624246 19.379362671242262 19.563446044921875 31.31427001953125 C20.386514576748255 36.37788198820729 20.361927386414436 41.4620858298195 20.4140625 46.58203125 C20.43342864990234 47.79026046752929 20.45279479980468 48.99848968505859 20.472747802734375 50.24333190917969 C20.53215325215473 54.099650448299286 20.578544964254718 57.95600617320781 20.625 61.8125 C20.663260682511066 64.32878836124672 20.70231684207934 66.8450647589334 20.7421875 69.361328125 C20.9955596622778 86.24173595261004 21.048039674775623 103.11799603326614 21 120 C17.725741408075294 119.27238697957227 16.112750508460692 118.68895519258632 14 116 C13.711250000000007 115.15437500000002 13.422500000000014 114.30875000000003 13.125 113.4375 C12.213466887659251 110.85377868624823 12.213466887659251 110.85377868624823 9.875 109.75 C3.2034680724457303 108.00960036672495 -3.5334337705999985 107.83943081175107 -10.38671875 107.75390625 C-12.217697879220054 107.72250563102688 -14.048671009237438 107.69075367202856 -15.879638671875 107.65869140625 C-16.82858001708985 107.64332336425781 -17.777521362304697 107.62795532226562 -18.755218505859375 107.61212158203125 C-33.078357362434105 107.36973802808643 -47.39027062584307 107.05018740557529 -61.6875 106.125 C-62.82340576171876 106.05869384765623 -63.95931152343749 105.99238769531252 -65.129638671875 105.924072265625 C-72.59956378251161 105.3891605477292 -81.41195883634293 104.58804116365707 -87 99 C-87 98.34000000000003 -87 97.68 -87 97 C-88.65 96.34000000000003 -90.3 95.68 -92 95 C-92 94.34000000000003 -92 93.68 -92 93 C-86.24999999999996 94.875 -86.24999999999996 94.875 -84 96 C-83.99635437011719 95.29637329101564 -83.99270874023438 94.59274658203128 -83.98895263671875 93.8677978515625 C-83.95072387665022 87.16196001650405 -83.89348713246108 80.4565666332175 -83.81609725952148 73.75106048583984 C-83.77696991319743 70.30554087594464 -83.7446150145274 66.86026354798611 -83.72900390625 63.41455078125 C-83.5245848213728 21.42634055958038 -83.5245848213728 21.42634055958038 -68.875 5.25 C-47.87897718057849 -13.961126024929314 -23.611069955232438 -13.554503122448267 0 0 Z " fill="#F6F6F5" transform="translate(213,190)"/>
<path d="M0 0 C0.8153320312500227 -0.0006445312500034106 1.6306640624999886 -0.0012890625000068212 2.470703125 -0.001953125 C3.3040820312500045 0.018027343749992042 4.137460937500009 0.038007812500012506 4.99609375 0.05859375 C6.251962890625009 0.04795898437498636 6.251962890625009 0.04795898437498636 7.533203125 0.037109375 C13.543865606750273 0.09897684314154276 17.082677850490654 1.1451778504906258 21.43359375 5.49609375 C21.66064453125 8.385253906250057 21.66064453125 8.385253906250057 21.62890625 12.03515625 C21.622460937500023 13.337109375000011 21.61601562499999 14.639062499999994 21.609375 15.98046875 C21.592663043993127 17.360679704919335 21.57573313678631 18.740888036718985 21.55859375 20.12109375 C21.54856380824208 21.509108270696743 21.53943798141023 22.89712964133679 21.53125 24.28515625 C21.50761237665847 27.68897401118437 21.47466241918977 31.092448812687252 21.43359375 34.49609375 C22.230556640624968 34.46467285156251 23.027519531249993 34.433251953124994 23.8486328125 34.40087890625 C27.45999762399606 34.27614945997712 31.070909895205034 34.198115436244365 34.68359375 34.12109375 C35.937851562499986 34.07082031249999 37.19210937499997 34.02054687500001 38.484375 33.96875 C47.61750649943326 33.82222917380588 47.61750649943326 33.82222917380588 51.2578125 36.828125 C52.8596367276549 41.82517798926227 53.054669343332534 46.33847469713203 52.99609375 51.55859375 C53.031865234375005 53.02909179687501 53.031865234375005 53.02909179687501 53.068359375 54.529296875 C53.05947571845718 58.89117223752248 52.817692199985345 61.78251635438505 50.73046875 65.66015625 C45.40628296190812 68.62504644005116 40.094818763900776 68.01746525398255 34.12109375 67.80859375 C32.90357421875001 67.78603515625 31.686054687500018 67.76347656249999 30.431640625 67.740234375 C27.431038926178644 67.68139904757214 24.432945784520484 67.5992351542132 21.43359375 67.49609375 C21.46501464843749 68.73697753906251 21.46501464843749 68.73697753906251 21.4970703125 70.0029296875 C21.58020994281418 73.75052745394021 21.6322490580975 77.49793124111667 21.68359375 81.24609375 C21.717109375000007 82.54804687500001 21.750625000000014 83.85 21.78515625 85.19140625 C21.80449218749999 87.0669921875 21.80449218749999 87.0669921875 21.82421875 88.98046875 C21.85563964843749 90.7086181640625 21.85563964843749 90.7086181640625 21.8876953125 92.4716796875 C21.43359375 95.49609375 21.43359375 95.49609375 19.768798828125 97.8701171875 C16.869089202781367 99.88915180378734 15.19439556180123 100.01160163599047 11.6796875 100.02734375 C10.578183593749998 100.0325 9.476679687499995 100.03765625 8.341796875 100.04296875 C7.196464843749993 100.0275 6.051132812499986 100.01203125 4.87109375 99.99609375 C3.7218945312499727 100.0115625 2.5726953125000023 100.02703125 1.388671875 100.04296875 C-0.2616503906249932 100.03523437500002 -0.2616503906249932 100.03523437500002 -1.9453125 100.02734375 C-2.9515063476562773 100.02283203125 -3.9577001953124977 100.01832031250001 -4.994384765625 100.013671875 C-7.56640625 99.49609375 -7.56640625 99.49609375 -9.3994140625 97.8701171875 C-10.929822004443395 94.75679358342944 -10.906613103336781 92.44459632803239 -10.859375 88.98046875 C-10.849707031249977 87.730078125 -10.840039062500011 86.47968750000001 -10.830078125 85.19140625 C-10.804941406250009 83.88945312499999 -10.779804687500018 82.5875 -10.75390625 81.24609375 C-10.73360351562502 79.2699609375 -10.73360351562502 79.2699609375 -10.712890625 77.25390625 C-10.67753175855404 74.00089053697116 -10.628176582986441 70.74869774540895 -10.56640625 67.49609375 C-11.368605957031264 67.5065673828125 -12.170805664062527 67.51704101562501 -12.997314453125 67.52783203125 C-16.62447997330338 67.56935142212069 -20.251595528527872 67.59540717938765 -23.87890625 67.62109375 C-25.141542968750002 67.6378515625 -26.404179687500005 67.654609375 -27.705078125 67.671875 C-29.517822265625 67.68154296875 -29.517822265625 67.68154296875 -31.3671875 67.69140625 C-32.482629394531244 67.7018798828125 -33.59807128906249 67.71235351562501 -34.747314453125 67.72314453125 C-37.56640625 67.49609375 -37.56640625 67.49609375 -40.56640625 65.49609375 C-42.61621430507762 60.128201752923815 -42.90269465809331 55.13805401077707 -42.87890625 49.43359375 C-42.903076171875 48.26860351562499 -42.903076171875 48.26860351562499 -42.927734375 47.080078125 C-42.931903843528175 42.155935793235386 -42.29826153221717 38.75672449428518 -39.56640625 34.49609375 C-36.80023062116214 33.11300593558107 -34.55622625339262 33.383991787367336 -31.46484375 33.3984375 C-29.64726562499999 33.40327148437501 -29.64726562499999 33.40327148437501 -27.79296875 33.408203125 C-26.52195312500001 33.416582031250016 -25.250937499999992 33.4249609375 -23.94140625 33.43359375 C-22.662656249999998 33.438105468749995 -21.383906249999995 33.44261718749999 -20.06640625 33.447265625 C-16.89969332630585 33.459081717998856 -13.733072693798533 33.47555560204083 -10.56640625 33.49609375 C-10.613537597656261 32.20977050781249 -10.613537597656261 32.20977050781249 -10.66162109375 30.8974609375 C-10.764052517646348 27.706959793184637 -10.839178847823575 24.517297688257912 -10.89599609375 21.32568359375 C-10.926119286161736 19.94617094340964 -10.967029002619142 18.566849081511407 -11.01904296875 17.18798828125 C-11.092031265769549 15.202992830933624 -11.122700232400064 13.216584429194654 -11.15234375 11.23046875 C-11.199475097656261 9.439477539062494 -11.199475097656261 9.439477539062494 -11.24755859375 7.6123046875 C-10.56640625 4.49609375 -10.56640625 4.49609375 -7.815185546875 2.106201171875 C-4.84488460626369 0.6341086864664476 -3.241044753948586 -0.008196154957772706 0 0 Z " fill="#F4F5F4" transform="translate(271.56640625,130.50390625)"/>
<path d="M0 0 C8.165086833642988 6.203028654215331 17.028480302259283 14.49065946245652 19 25 C19.92239743083593 35.71575286934063 19.644316621387446 45.73154122024917 13.01171875 54.68359375 C6.423736899553774 62.341127058031645 -1.6782944713796155 70.43679188241381 -12.19921875 71.24609375 C-23.921923654816595 71.46153805635879 -32.716089280294256 70.46523417946489 -42 63 C-42.6290625 62.495976562500005 -43.25812500000001 61.99195312500001 -43.90625 61.47265625 C-50.7719187262519 55.31463320386618 -54.80178385903881 47.98053697637684 -55.58203125 38.75390625 C-56.147294397714916 26.534154492719182 -55.181382109993194 16.78921801747586 -46.65625 7.42578125 C-34.705992378275226 -4.026548970819576 -14.940911406464409 -9.445694838324101 0 0 Z " fill="#F5F6F5" transform="translate(211,98)"/>
<path d="M0 0 C0.8301562500000159 0.00008056640625397904 1.660312499999975 0.00016113281249374722 2.515625 0.000244140625 C11.895108267574585 0.0843690377567583 22.42118371714355 0.20289457238118302 31.375 3.1875 C31.375 3.8474999999999966 31.375 4.507499999999993 31.375 5.1875 C31.969257812500018 5.4453125 32.56351562499998 5.703125 33.17578125 5.96875 C35.55250699594029 7.285869773949159 36.842855727188635 8.600939339930704 38.5625 10.6875 C39.32626953124998 11.600156249999998 39.32626953124998 11.600156249999998 40.10546875 12.53125 C43.61395243409078 17.108471790936903 42.97591031957671 22.67803010365604 42.375 28.1875 C40.709125178457725 32.943192436601976 38.634714027642076 36.2637097130625 34.5625 39.25 C33.84062499999999 39.559375 33.11874999999998 39.868750000000006 32.375 40.1875 C33.929420592787494 41.22378039519168 35.4853435047458 42.25816080582331 37.05859375 43.265625 C41.23985951932792 46.05934377683383 44.27548834076447 48.48459388331247 46.375 53.1875 C47.434951221256085 61.36114446906748 46.746190261316826 69.07788760438763 42.375 76.1875 C38.11354070193056 81.26116812468169 34.9978337221325 82.29526179367645 28.375 84.1875 C14.845000000000027 84.1875 1.3149999999999977 84.1875 -12.625 84.1875 C-12.625 56.797500000000014 -12.625 29.4075 -12.625 1.1875 C-8.33470856032335 0.11492714008083738 -4.384632347904926 -0.0039652020831084656 0 0 Z " fill="#19537B" transform="translate(393.625,86.8125)"/>
<path d="M0 0 C1.9375 1.6875 1.9375 1.6875 3 3 C3.659999999999968 1.3499999999999943 4.32000000000005 -0.29999999999999716 5 -2 C9.620000000000005 -2 14.240000000000009 -2 19 -2 C19.068044471917915 6.43262927368157 19.122969905802393 14.865041537549189 19.155436515808105 23.29787254333496 C19.171026612484752 27.214474046742993 19.19214146887282 31.130876369650537 19.226318359375 35.04736328125 C19.25915160734519 38.83400019900279 19.27690293908745 42.62044672440666 19.284631729125977 46.4072151184082 C19.2901325996462 47.84476336275611 19.30087328684101 49.282302359796375 19.317190170288086 50.71976852416992 C19.521363573341546 69.46937531881787 19.521363573341546 69.46937531881787 14.1328125 76.40234375 C13.470234375000018 76.90894531250001 12.807656250000036 77.41554687500002 12.125 77.9375 C11.067324218749945 78.75927734375 11.067324218749945 78.75927734375 9.98828125 79.59765625 C1.724618754402286 85.42605474885966 -5.984903108733761 85.80209897238171 -16 85 C-19.32798524357395 84.10344174990101 -22.062106005232067 82.78267420041806 -25 81 C-25.63550781250001 80.64937500000002 -26.271015625000018 80.29874999999998 -26.92578125 79.9375 C-31.967677499966726 76.82815070665865 -34.8672136486033 72.49413626926611 -37 67 C-37 65.68 -37 64.36000000000001 -37 63 C-23.44345100930957 62.07917780440593 -23.44345100930957 62.07917780440593 -19.9609375 64.30078125 C-18.6875 65.9375 -18.6875 65.9375 -17 69 C-12.824127981230845 71.08793600938458 -7.548426217298129 70.44271348515036 -3 70 C0.02402276676866677 68.33975220647994 1.5067660176566733 67.46705492184157 2.609375 64.1875 C3.0595837436449074 61.666331035588314 3.0961819000576725 59.30982440438382 3.0625 56.75 C3.053476562500009 55.85796875 3.044453125000018 54.965937499999995 3.03515625 54.046875 C3.0235546874999955 53.37140625000001 3.011953124999991 52.695937500000014 3 52 C2.009999999999991 52.66 1.0199999999999818 53.31999999999999 0 54 C-6.554731634633754 57.26566093939789 -13.904815526995208 56.833867041157276 -21 56 C-24.30373233464536 54.878913652207416 -26.49989881275542 53.408856618367 -29 51 C-29.560742187499955 50.46890625 -30.121484375000023 49.93781250000001 -30.69921875 49.390625 C-37.18139909819013 42.54745155735861 -38.51345859607238 35.115031528685336 -38.4375 26 C-38.457480468749964 25.14921874999999 -38.47746093750004 24.298437500000006 -38.498046875 23.421875 C-38.491904651237974 15.412415214266048 -35.71139400432867 8.711394004328639 -30 3 C-20.475384540424102 -3.2147675734386496 -10.42661475328714 -5.745277517117415 0 0 Z " fill="#17527A" transform="translate(769,114)"/>
<path d="M0 0 C1.755703125000025 0.013535156250000568 1.755703125000025 0.013535156250000568 3.546875 0.02734375 C4.438906250000002 0.03894531250000455 5.3309375000000045 0.050546874999994884 6.25 0.0625 C6.25 0.7224999999999966 6.25 1.3824999999999932 6.25 2.0625 C7.28125 2.1656250000000057 8.3125 2.268749999999997 9.375 2.375 C17.25204125867492 3.7725395781520064 21.577898777853648 7.604486653692973 26.375 13.8125 C31.41444308818609 22.54753468618921 33.03385834400484 31.906910032523 30.55859375 41.8359375 C27.16757431662751 51.05837528950673 21.945360103906523 57.73890397719748 13.078125 62.140625 C9.40001703410735 63.339566270650096 5.892480728172416 63.445962175714044 2.0625 63.4375 C1.3087207031250045 63.435888671875006 0.5549414062500091 63.43427734375001 -0.2216796875 63.4326171875 C-8.78814531084322 63.24503034903262 -15.349231527230756 60.85656056065841 -21.75 55.0625 C-27.214293104379237 47.52663736281937 -29.39682103604872 40.42343277088827 -29.4375 31.1875 C-29.44434814453126 30.403669433593734 -29.451196289062523 29.619838867187497 -29.458251953125 28.812255859375 C-29.164234450643676 19.34047699957634 -24.38372228854672 12.532610303851612 -17.75 6.0625 C-13.53125 3.0625 -13.53125 3.0625 -10.75 3.0625 C-10.75 2.4025000000000034 -10.75 1.7425000000000068 -10.75 1.0625 C-7.140068278004776 -0.07230526904304213 -3.765767297102343 -0.037657672971022293 0 0 Z " fill="#19547C" transform="translate(475.75,109.9375)"/>
<path d="M0 0 C6.108650908407071 4.719232270416484 11.246864023026774 11.131032501897622 12.25439453125 18.982421875 C13.076922873637614 30.379209565763006 11.797937465765699 39.12746671988637 4.53515625 48.24609375 C0.41243223455580846 52.95627971166519 -4.753336790036997 56.39552001155482 -11.032470703125 57.289306640625 C-13.176302090683066 57.40132214386736 -15.291213529837364 57.41653328404229 -17.4375 57.375 C-18.187412109375032 57.36557373046875 -18.93732421874995 57.35614746093751 -19.7099609375 57.346435546875 C-26.514560220631665 57.160221589170476 -31.34599256597619 56.28368081532278 -36.6875 51.6875 C-37.450624999999945 50.800625 -38.213750000000005 49.91374999999999 -39 49 C-39.665156249999995 48.23236328125 -39.665156249999995 48.23236328125 -40.34375 47.44921875 C-48.20069487508522 38.2447164690135 -47.75150548158422 28.93063211958477 -47.21337890625 17.2734375 C-46.77068952178399 12.556820168023535 -45.166587865545125 9.439696842293728 -42 6 C-41.333554687500055 5.275546875000003 -40.667109374999995 4.551093750000007 -39.98046875 3.8046875 C-29.08888730896126 -6.838924486163947 -12.76537709092645 -9.013545831227603 0 0 Z " fill="#16517A" transform="translate(561,116)"/>
<path d="M0 0 C2.5914693744865644 2.3125860808746097 4.267015197209048 4.604160303512657 6.109375 7.54296875 C6.702343750000011 8.469804687500016 7.295312500000023 9.396640625000003 7.90625 10.3515625 C9.308885092502294 13.00978223175835 9.951221502707938 15.146355894632592 10.359375 18.10546875 C7.372280404016124 19.599016047991938 4.322030197919332 19.411781033742386 1.046875 19.48046875 C-0.9273242187500159 19.55394531249999 -0.9273242187500159 19.55394531249999 -2.94140625 19.62890625 C-7.494346228334962 18.984667646940977 -8.797640751889844 17.624116530567818 -11.640625 14.10546875 C-12.568750000000023 12.775156250000009 -12.568750000000023 12.775156250000009 -13.515625 11.41796875 C-17.725714193225826 6.83640109854835 -23.10285648720094 6.915940842270658 -29.015625 6.60546875 C-35.688175827795135 6.728182328442216 -39.89236736125787 8.416564331742137 -44.640625 13.10546875 C-50.89370536561614 20.951882093393294 -51.2588238123634 28.27823935346413 -50.640625 38.10546875 C-49.207900906816064 46.96042323065524 -49.207900906816064 46.96042323065524 -45.640625 55.10546875 C-43.35995429574939 56.31844524377152 -43.35995429574939 56.31844524377152 -40.640625 57.10546875 C-39.795000000000016 57.47671875000003 -38.949374999999975 57.84796875000001 -38.078125 58.23046875 C-31.64224633525191 59.86869241011766 -25.242875112399645 59.78802615653103 -18.828125 58.10546875 C-15.620930295448716 56.093111288320756 -14.845146986365307 54.94886614972444 -12.828125 51.91796875 C-10.9484836379537 49.526890087117806 -9.60979044200758 48.27691535275477 -6.5732421875 47.73974609375 C-1.24500133455399 47.395106284986554 4.042275364837451 47.70035639684477 9.359375 48.10546875 C7.107959610488024 57.05597859736304 2.5480281848662685 63.77164274571868 -4.703125 69.54296875 C-13.082013520340979 73.99982434592607 -20.241257302349595 75.29348124661311 -29.578125 75.35546875 C-30.350917968749968 75.37609375 -31.123710937499993 75.39671874999999 -31.919921875 75.41796875 C-37.2868385612706 75.45426235396462 -40.85234650270854 74.54078484076001 -45.640625 72.10546875 C-46.35089843750001 71.752265625 -47.061171875000014 71.39906250000001 -47.79296875 71.03515625 C-57.965413666377 65.02517785301575 -64.78840574127327 55.370481131235636 -67.953125 44.04296875 C-70.20222854831445 31.749325082999576 -69.87915771778233 19.055985219908564 -62.875 8.42578125 C-47.113189752936194 -12.486541794332709 -20.78532101854489 -14.91254540531699 0 0 Z " fill="#16527A" transform="translate(443.640625,206.89453125)"/>
<path d="M0 0 C13 0 13 0 18 3 C19.662353515625 5.166259765625 19.662353515625 5.166259765625 21.12890625 7.69140625 C21.683686523437473 8.628474121093745 22.238466796874945 9.565541992187491 22.81005859375 10.531005859375 C23.388364257812555 11.531398925781247 23.966669921874995 12.531791992187493 24.5625 13.5625 C25.792381358191506 15.639913630500814 27.02550607496414 17.715410222134153 28.26171875 19.7890625 C28.880952148437473 20.828369140625 29.500185546874945 21.86767578125 30.13818359375 22.9384765625 C32.925931769680346 27.522578598451616 35.877421484406796 31.988644278009986 38.875 36.4375 C39.39263916015625 37.20586181640624 39.9102783203125 37.97422363281251 40.443603515625 38.765869140625 C41.62518340776262 40.51321323424574 42.81193003681517 42.257062196866144 44 44 C44.93568373768221 34.42502776408679 45.297934900130144 24.86073219935568 45.5625 15.25 C45.60582450266918 13.763012200522752 45.649442483977055 12.276032921699311 45.693359375 10.7890625 C45.79948513902241 7.192800760674203 45.899624162569694 3.5964448985648403 46 0 C50.620000000000005 0 55.24000000000001 0 60 0 C60 24.090000000000003 60 48.18000000000001 60 73 C45 73 45 73 40 69 C38.673095703125 67.223388671875 38.673095703125 67.223388671875 37.67578125 65.41796875 C37.291640625000014 64.74040527343749 36.90750000000003 64.06284179687498 36.51171875 63.36474609375 C36.11597656250001 62.646254882812514 35.72023437500002 61.92776367187503 35.3125 61.1875 C31.57891064779176 54.592535576415685 27.626995664926767 48.257101252264874 23.223876953125 42.086669921875 C20.45441858783329 38.09377426849741 19.0919344655274 34.66445918426393 18 30 C17.340000000000032 30 16.67999999999995 30 16 30 C15.340000000000032 28.680000000000007 14.67999999999995 27.360000000000014 14 26 C13.669999999999959 41.50999999999999 13.340000000000032 57.01999999999998 13 73 C8.710000000000036 73 4.419999999999959 73 0 73 C0 48.90999999999997 0 24.819999999999993 0 0 Z " fill="#16537A" transform="translate(652,208)"/>
<path d="M0 0 C4.289999999999964 0 8.580000000000041 0 13 0 C13 9.900000000000006 13 19.80000000000001 13 30 C23.559999999999945 30 34.120000000000005 30 45 30 C45 20.099999999999994 45 10.199999999999989 45 0 C49.620000000000005 0 54.24000000000001 0 59 0 C62 3 62 3 62.37422180175781 5.8841552734375 C62.373592376708984 7.058692626953132 62.372962951660156 8.233229980468764 62.372314453125 9.443359375 C62.3759651184082 10.092467803955088 62.379615783691406 10.741576232910148 62.38337707519531 11.410354614257813 C62.391480256384625 13.555086252672055 62.37787538534417 15.699061760903618 62.36328125 17.84375 C62.36276260983652 19.334431960968658 62.3632804609349 20.825114613458283 62.36479187011719 22.3157958984375 C62.364702157432134 25.43963840024668 62.35427502280004 28.563222769403012 62.336181640625 31.68701171875 C62.31349433845264 35.692083578031884 62.31295041362682 39.69677823762629 62.31969928741455 43.70189666748047 C62.32304008757103 46.77996169998545 62.316407114917524 49.85794066849519 62.306570053100586 52.93598937988281 C62.30271966843054 54.41278126701121 62.30156917144666 55.88958272999821 62.30315589904785 57.36637878417969 C62.30352658883419 59.429985085758744 62.29090599477661 61.49310705453922 62.274658203125 63.556640625 C62.27005081176753 64.73117797851563 62.26544342041018 65.90571533203126 62.26069641113281 67.1158447265625 C62 70 62 70 60 73 C57.1935989308148 73.22249479935402 54.66883107802198 73.28088480925356 51.875 73.1875 C49.276250000000005 73.12562500000001 46.67750000000001 73.06375000000003 44 73 C44 63.10000000000002 44 53.19999999999999 44 43 C33.76999999999998 43 23.539999999999964 43 13 43 C13 52.89999999999998 13 62.80000000000001 13 73 C8.710000000000036 73 4.419999999999959 73 0 73 C0 48.90999999999997 0 24.819999999999993 0 0 Z " fill="#134D78" transform="translate(787,208)"/>
<path d="M0 0 C5.559554285942909 4.3372409322958845 8.681598506731234 10.453996266828028 11.25 16.875 C11.25 22.155 11.25 27.435000000000002 11.25 32.875 C-2.2799999999999727 33.204999999999984 -15.809999999999945 33.53499999999997 -29.75 33.875 C-26.63430136329248 41.47870598660455 -26.63430136329248 41.47870598660455 -20.75 44.875 C-15.262098520372774 45.57473242909634 -11.268071820575301 45.32999609808701 -6.75 41.875 C-3.0132157046996326 39.383810469799755 -1.0054818055606347 39.66847739806309 3.4375 39.75 C4.709804687499968 39.76804687499998 5.98210937500005 39.78609375000002 7.29296875 39.8046875 C8.268789062499991 39.82789062500001 9.244609374999982 39.85109375000002 10.25 39.875 C8.824037051788537 46.35664976459748 6.3759592690294085 50.509409201815515 0.9375 54.625 C-8.138633474911217 58.846457430191265 -21.17159445465211 60.23870714443149 -30.70703125 56.8125 C-37.818660360867966 52.35410219284597 -43.37914188608238 44.929331870336625 -45.75 36.875 C-46.94082020423241 28.092700993785854 -47.73673008641981 16.835122985905258 -43.25 8.9375 C-41.58203125 6.78125 -41.58203125 6.78125 -39.75 4.875 C-39.135117187499986 4.204687500000006 -38.52023437499997 3.5343750000000114 -37.88671875 2.84375 C-27.440734087089595 -7.371962455912438 -12.15385377344785 -7.736704274287291 0 0 Z " fill="#17537A" transform="translate(605.75,224.125)"/>
<path d="M0 0 C3.8370451758469812 3.5488550875322744 7.6397521527401295 7.81966717178355 8.247238159179688 13.182662963867188 C8.245813140869132 13.970184478759762 8.244388122558576 14.757705993652337 8.242919921875 15.569091796875 C8.247534866333012 16.915197830200185 8.247534866333012 16.915197830200185 8.252243041992188 18.288497924804688 C8.245057525634763 19.24903579711915 8.23787200927734 20.20957366943361 8.23046875 21.19921875 C8.230010528564435 22.190009307861317 8.229552307128927 23.180799865722662 8.229080200195313 24.201614379882813 C8.22606265070192 26.292055262537104 8.218191232409424 28.382493992791524 8.205810546875 30.472900390625 C8.187509740999701 33.68578987009198 8.185301218890913 36.89839187431738 8.185546875 40.111328125 C8.180633268704355 42.140627510411946 8.174805637856991 44.16992493289894 8.16796875 46.19921875 C8.166855926513676 47.16582931518553 8.165743103027353 48.13243988037107 8.164596557617188 49.12834167480469 C8.158216705322275 50.01628921508791 8.151836853027362 50.90423675537107 8.145263671875 51.819091796875 C8.141451873779317 52.60422653198242 8.137640075683578 53.38936126708984 8.133712768554688 54.19828796386719 C8 56 8 56 7 57 C4.980358012309239 57.07244053040495 2.9583287646251506 57.0837718817329 0.9375 57.0625 C-0.7195898437499864 57.048964843750014 -0.7195898437499864 57.048964843750014 -2.41015625 57.03515625 C-3.264804687500032 57.023554687499995 -4.119453125000007 57.01195312499999 -5 57 C-5.4950000000000045 55.01999999999998 -5.4950000000000045 55.01999999999998 -6 53 C-6.928125000000023 53.63937499999997 -7.856249999999989 54.27875 -8.8125 54.9375 C-13.677582262865144 58.085494405383315 -17.681034934711192 58.21172326208807 -23.3125 58.25 C-24.059511718750002 58.270624999999995 -24.806523437500005 58.29124999999999 -25.576171875 58.3125 C-31.53362594187371 58.354343399942934 -35.52934990292118 56.99024591153568 -40.25 53.1875 C-43.893988799492035 48.632514000634956 -44.412621637963355 43.76376330567109 -44.2421875 38.1015625 C-43.62492268003592 32.74529680418266 -39.91718607913975 29.58232833390798 -35.9296875 26.34765625 C-28.269795066494055 20.99813623064867 -16.193334932906964 18.636421782314414 -7 19 C-7.281510874745322 17.685284319008645 -7.575533387947075 16.373242325062392 -7.875 15.0625 C-8.037421875000007 14.331601562499998 -8.199843750000014 13.600703124999995 -8.3671875 12.84765625 C-8.829615229894614 10.792997057018965 -8.829615229894614 10.792997057018965 -11 10 C-14.728035375011359 9.525741071455883 -18.284032544577087 9.392529620689317 -22 10 C-23.140078261516635 11.520104348688847 -24.279161965771266 13.047235731629485 -25.27734375 14.6640625 C-29.385155748574675 17.849712621343656 -37.005581902914685 16.33924349338693 -42 16 C-39.956848018992844 8.895403338770507 -38.10245448216085 4.088190516839006 -31.75 -0.1875 C-21.87879448053843 -5.353152040904689 -9.524992573836187 -6.356172087209757 0 0 Z " fill="#17527A" transform="translate(503,224)"/>
<path d="M0 0 C4.6200000000000045 0 9.240000000000009 0 14 0 C14.752702487361944 10.48090774419127 15.25774033167636 20.93510865446315 15.5625 31.4375 C15.605873050990226 32.86263773908948 15.649491886631722 34.28776801961001 15.693359375 35.712890625 C15.798388433173272 39.14184633401115 15.900154149362038 42.57088896892549 16 46 C20.571215718425947 41.53072869282593 24.948755910793807 37.06069777786301 28.9375 32.0625 C32.986111111111086 27.013888888888857 32.986111111111086 27.013888888888857 34 26 C35.34267413007001 25.91368125667323 36.68974321845121 25.89293526726189 38.03515625 25.90234375 C38.844042968750045 25.905566406250003 39.65292968749998 25.908789062500006 40.486328125 25.912109375 C41.336464843750036 25.92048828125 42.18660156249996 25.928867187500003 43.0625 25.9375 C43.91650390625 25.942011718749995 44.7705078125 25.946523437500005 45.650390625 25.951171875 C47.76695663454507 25.96299626611477 49.88348685042217 25.98093231396777 52 26 C47.32092564973823 33.761758628081296 41.507582830754586 39.65244969578106 35.01953125 45.91015625 C34.45621093750003 46.496679687500006 33.89289062499995 47.08320312500001 33.3125 47.6875 C32.81363281250003 48.1863671875 32.31476562499995 48.68523437499999 31.80078125 49.19921875 C30.721646998246342 51.122808061440765 30.721646998246342 51.122808061440765 31.7255859375 53.802001953125 C33.012464589472984 57.03127847844942 34.44150912464124 59.25233443447664 36.58984375 61.96875 C37.29173828124999 62.86980468749999 37.99363281249998 63.770859374999986 38.716796875 64.69921875 C39.816044921875005 66.08560546875 39.816044921875005 66.08560546875 40.9375 67.5 C49.720071182053516 78.63546160483173 49.720071182053516 78.63546160483173 52 84 C50.08598477258272 85.91401522741728 46.86149652037045 85.26189296354542 44.3125 85.3125 C42.481386718749945 85.36857421874998 42.481386718749945 85.36857421874998 40.61328125 85.42578125 C35.7740004417343 84.85553086286382 32.89825403993916 83.16928311703063 29.676513671875 79.487548828125 C28.36490917417325 77.77937182661543 27.142291477691856 76.0349823795529 25.9375 74.25 C25.50775878906245 73.629638671875 25.078017578125014 73.00927734375 24.63525390625 72.3701171875 C23.409133905520093 70.58929064112328 22.2006361399782 68.79807937375926 21 67 C20.42121093749995 66.13375000000002 19.842421875000014 65.26749999999998 19.24609375 64.375 C16 59.34401709401709 16 59.34401709401709 16 57 C15.340000000000032 57 14.67999999999995 57 14 57 C14 65.91 14 74.82 14 84 C9.379999999999995 84 4.759999999999991 84 0 84 C0 56.28 0 28.560000000000002 0 0 Z " fill="#144F79" transform="translate(582,87)"/>
<path d="M0 0 C6.358638265091486 3.5952601318411723 10.744413136262665 7.846520658787824 13.09765625 14.90625 C13.183965512498503 16.36406721577015 13.215366064498994 17.825524739841057 13.211181640625 19.285888671875 C13.211106109619095 20.16657516479492 13.211030578613304 21.04726165771484 13.210952758789063 21.954635620117188 C13.205791473388672 22.9015980529785 13.200630187988281 23.84856048583984 13.1953125 24.82421875 C13.193897552490284 25.796599884033213 13.192482604980455 26.7689810180664 13.191024780273438 27.770828247070313 C13.185424415967418 30.87850004028803 13.172871872035671 33.98609995795971 13.16015625 37.09375 C13.15514129637063 39.1998687516371 13.150578381576452 41.305988631816575 13.146484375 43.412109375 C13.135454869204864 48.57685063809717 13.118189999560514 53.741538129770106 13.09765625 58.90625 C8.147656249999955 58.90625 3.1976562500000227 58.90625 -1.90234375 58.90625 C-1.9169262695312455 57.75100830078125 -1.931508789062491 56.5957666015625 -1.946533203125 55.405517578125 C-2.0046119727627456 51.10947087650689 -2.0818442542645244 46.8139430645507 -2.164794921875 42.518310546875 C-2.197999237763838 40.66097449664193 -2.226045157055978 38.803538633567086 -2.248779296875 36.946044921875 C-2.2824081666049096 34.27219202440929 -2.334727492307252 31.59925007024333 -2.390625 28.92578125 C-2.397014923095753 28.09851028442384 -2.4034048461913926 27.27123931884765 -2.4099884033203125 26.418899536132813 C-2.526741386419644 21.815636219527022 -2.8444357168593797 18.5981970678842 -5.90234375 14.90625 C-10.54850515379428 13.357529532068568 -15.054985371622706 13.310960374585235 -19.90234375 13.90625 C-23.23567708333337 15.572916666666657 -23.23567708333337 15.572916666666657 -24.90234375 18.90625 C-26.58298608472819 27.37711692417625 -26.22235136034999 36.41237763644108 -26.46484375 45.03125 C-26.50814530694572 46.47917621877022 -26.551762807278806 47.927093024978916 -26.595703125 49.375 C-26.702137192419286 52.885316034885534 -26.802104115773318 56.39573004389135 -26.90234375 59.90625 C-31.852343750000045 59.90625 -36.80234374999998 59.90625 -41.90234375 59.90625 C-41.90234375 40.43625 -41.90234375 20.966250000000002 -41.90234375 0.90625 C-37.282343749999995 0.90625 -32.66234374999999 0.90625 -27.90234375 0.90625 C-27.242343750000032 2.226249999999993 -26.58234374999995 3.5462500000000006 -25.90234375 4.90625 C-25.431835937499955 4.556914062499999 -24.961328125000023 4.207578124999998 -24.4765625 3.84765625 C-23.853945312499945 3.3926171874999937 -23.231328125000005 2.9375781250000017 -22.58984375 2.46875 C-21.974960937499986 2.016289062499993 -21.360078124999973 1.5638281250000006 -20.7265625 1.09765625 C-14.943132721475195 -2.6795302220558455 -6.261730033784147 -2.3597367556656224 0 0 Z " fill="#155079" transform="translate(708.90234375,112.09375)"/>
<path d="M0 0 C18.480000000000018 0 36.960000000000036 0 56 0 C56 3.960000000000008 56 7.9199999999999875 56 12 C49.07000000000005 12 42.139999999999986 12 35 12 C35 32.129999999999995 35 52.25999999999999 35 73 C30.379999999999995 73 25.75999999999999 73 21 73 C21 52.870000000000005 21 32.74000000000001 21 12 C14.07000000000005 12 7.139999999999986 12 0 12 C0 8.039999999999992 0 4.0800000000000125 0 0 Z " fill="#124D77" transform="translate(721,208)"/>
<path d="M0 0 C2.134687500000041 0.03093749999999318 2.134687500000041 0.03093749999999318 4.3125 0.0625 C4.3125 4.6825000000000045 4.3125 9.302500000000009 4.3125 14.0625 C1.0572916666666288 14.453125 -2.1979166666666288 14.84375 -5.453125 15.234375 C-9.084544990826203 16.16415886238545 -10.410916508516266 17.13546408237812 -12.6875 20.0625 C-13.96907698576149 23.907230957284355 -14.032775037876263 27.653850686526 -14.22265625 31.66796875 C-14.287121963501022 32.926776046752934 -14.287121963501022 32.926776046752934 -14.352890014648438 34.21101379394531 C-14.489202934345599 36.890494020706456 -14.619671376273686 39.57022268157556 -14.75 42.25 C-14.841412014245407 44.06707669378875 -14.933204254501447 45.884134302313896 -15.025390625 47.701171875 C-15.25050582317806 52.154738488937596 -15.470379957305 56.608536736972496 -15.6875 61.0625 C-20.637500000000045 61.0625 -25.587499999999977 61.0625 -30.6875 61.0625 C-30.6875 41.26249999999999 -30.6875 21.462500000000006 -30.6875 1.0625 C-26.067499999999995 1.0625 -21.44749999999999 1.0625 -16.6875 1.0625 C-15.697499999999991 2.382499999999993 -14.707499999999982 3.7024999999999864 -13.6875 5.0625 C-12.295312500000023 4.1034375000000125 -12.295312500000023 4.1034375000000125 -10.875 3.125 C-7.002825924226386 0.6194755980288562 -4.508240646612194 -0.06533682096539906 0 0 Z " fill="#17527A" transform="translate(551.6875,219.9375)"/>
<path d="M0 0 C10.230000000000018 0 20.460000000000036 0 31 0 C31 9.899999999999977 31 19.80000000000001 31 30 C35.289999999999964 30 39.58000000000004 30 44 30 C40.293415432997335 32.47105637800178 37.66155128651769 32.150793290906165 33.40234375 31.94140625 C32.27899375915524 31.900309829711887 32.27899375915524 31.900309829711887 31.132949829101563 31.858383178710938 C28.733960157725278 31.76966326171157 26.33583991858552 31.667236257864147 23.9375 31.5625 C14.512850723748102 31.165601850607516 5.382322050997118 30.794570136795244 -4 32 C-7.013526422217296 32.09991798482156 -9.983277636352568 32.04865681231689 -13 32 C-10 30 -10 30 0 30 C0 20.100000000000023 0 10.199999999999989 0 0 Z " fill="#F7F7F6" transform="translate(800,251)"/>
<path d="M0 0 C4.353180568132075 2.058021163533269 6.894014104255916 5.776028288878052 9 10 C9.936812133701778 17.687370155964317 9.692844825118527 25.123668256675757 6 32 C2.010652157411414 35.989347842588614 -0.8326799291104408 36.74992460720506 -6.25 37.375 C-10.987781763640555 36.90122182363595 -14.585687197953348 35.37506782731043 -18 32 C-20.196340920520697 27.1963898576999 -20.33525790430997 22.67969902095757 -20.3125 17.5 C-20.336669921875 16.399785156250005 -20.336669921875 16.399785156250005 -20.361328125 15.27734375 C-20.365620247819834 10.47875043740217 -19.760215487379128 7.0892081294505545 -17 3 C-11.871866055012333 -1.0817524823510354 -6.272995352260409 -0.9094993261407467 0 0 Z " fill="#F2F2F3" transform="translate(549,124)"/>
<path d="M0 0 C3.9465210155879618 1.9315985776870122 6.451063397031248 4.913296730560205 8 9 C8.24579858915456 11.615182663679263 8.380768222995584 14.07358421095077 8.375 16.6875 C8.374113769531277 17.399223632812493 8.373227539062498 18.110947265624986 8.372314453125 18.84423828125 C8.246776965185063 24.4405338096185 7.374900356937644 29.372210212894913 4 34 C-1.0979909830199404 37.39866065534662 -7.057140707998883 36.66183392804146 -13 36 C-16.084803804644025 34.71420521201779 -16.85851487530914 33.736342103771676 -19 31 C-20.831049519211717 26.543174607752093 -21.270895781201204 22.738305730970524 -21.25 17.9375 C-21.255156250000027 16.7502734375 -21.260312499999998 15.563046874999998 -21.265625 14.33984375 C-20.881973303918812 9.515987865449745 -19.632669859044427 6.064286655348752 -16.125 2.6875 C-11.297069593606409 -1.2193786936434634 -5.911421818659505 -1.1068542933689827 0 0 Z " fill="#F4F4F3" transform="translate(483,124)"/>
<path d="M0 0 C4.6200000000000045 0 9.240000000000009 0 14 0 C14 19.47 14 38.94 14 59 C9.379999999999995 59 4.759999999999991 59 0 59 C0 39.53 0 20.060000000000002 0 0 Z " fill="#15547C" transform="translate(641,113)"/>
<path d="M0 0 C3.605404487339797 1.9331609586723175 6.167683459999239 4.335366919998535 8 8 C9.227571558253658 24.466995617145614 9.227571558253658 24.466995617145614 5.625 29.5 C1.9442118418853624 33.00551253153779 0.17619112072532062 33.176184595007754 -4.8125 33.25 C-5.850195312499977 33.275781249999994 -6.8878906249999545 33.30156249999999 -7.95703125 33.328125 C-12.604667060559677 32.82696786510013 -14.990543465086603 30.986985755882785 -18.28125 27.76953125 C-21.58400247990437 22.447596003972194 -20.644648384593665 16.02522846590489 -20 10 C-16.892262753863633 -0.42986939191131057 -9.869255886527185 -1.3997261954449556 0 0 Z " fill="#F3F3F4" transform="translate(766,124)"/>
<path d="M0 0 C2.9906250000000227 -0.06187499999998636 5.981249999999989 -0.12375000000000114 9.0625 -0.1875 C9.990705566406234 -0.21481201171874886 10.918911132812525 -0.24212402343749773 11.875244140625 -0.270263671875 C17.373591991949183 -0.32490052946374703 21.141364204389276 0.38089164142860454 26 3 C29.42050540388084 6.641183171873138 29.471278081882076 10.628011182561636 29.7890625 15.40234375 C28.72769182388231 18.896460084743865 27.093012211492407 20.565875523407698 24.2548828125 22.815673828125 C19.901991986534313 25.101931233577517 15.353831188159347 24.61625678021329 10.5625 24.375 C7.076874999999973 24.25125 3.5912500000000023 24.127499999999998 0 24 C0 16.079999999999984 0 8.159999999999997 0 0 Z " fill="#F2F4F3" transform="translate(395,135)"/>
<path d="M0 0 C3.0318750000000136 -0.06187500000000057 6.063750000000027 -0.12375000000000114 9.1875 -0.1875 C10.6071203613281 -0.2284680175781233 10.6071203613281 -0.2284680175781233 12.055419921875 -0.270263671875 C16.846286812640358 -0.317557018742761 20.143844152038696 -0.19156786614830423 24 3 C25.1288790757647 5.257758151529387 25.263906123409015 6.737569252480995 25.375 9.25 C25.44847656249999 10.371484374999994 25.44847656249999 10.371484374999994 25.5234375 11.515625 C24.732522188651785 15.269521552369042 23.135807774316277 17.854539566370548 20 20 C16.52369893500753 20.724662503082584 13.218800481219375 20.568160284491057 9.6875 20.375 C4.892187499999977 20.189375 4.892187499999977 20.189375 0 20 C0 13.400000000000006 0 6.799999999999997 0 0 Z " fill="#F4F4F4" transform="translate(395,102)"/>
<path d="M0 0 C1.8253124999999955 0.03093749999999318 1.8253124999999955 0.03093749999999318 3.6875 0.0625 C3.7419704675931484 1.4787321574218595 3.780505075334645 2.8955819076773537 3.8125 4.3125 C3.835703125000009 5.101406250000025 3.858906250000018 5.890312499999993 3.8828125 6.703125 C3.554999372710995 10.663107577651147 2.16806057945098 12.607232082625387 -0.6875 15.3125 C-5.260881171120047 18.183630114871903 -11.140711298614178 17.890881740048826 -16.3125 17.0625 C-19.04786856171262 15.069925487373155 -19.291077757453536 14.149836834997132 -20.125 10.75 C-19.3125 7.0625 -19.3125 7.0625 -17.25 5.30859375 C-11.560684525195711 1.7951027945777014 -6.7277765843373345 -0.11403011159893595 0 0 Z " fill="#F0F2F3" transform="translate(493.3125,253.9375)"/>
<path d="M0 0 C0.7344433593750068 0.15565429687499943 1.4688867187500136 0.31130859374999886 2.2255859375 0.4716796875 C18.503768898306134 4.034532314570278 34.569864560192684 11.394439952519427 47.8125 21.5625 C48.60269531250003 22.161914062500003 49.39289062500001 22.761328125000006 50.20703125 23.37890625 C50.798710937500005 23.913867187500003 51.39039062500001 24.448828125000006 52 25 C52 25.659999999999997 52 26.319999999999993 52 27 C49.2734510497761 25.682483142499308 46.713905008628785 24.241223170395898 44.1640625 22.609375 C35.02261779620687 16.834178163084594 26.17232978048014 11.765083100567324 16 8 C15.320019531250011 7.743798828125001 14.640039062500023 7.487597656250003 13.939453125 7.2236328125 C-19.762293510753636 -5.327466900455875 -56.05855734123071 -3.6121777073061523 -88.88671875 11.1640625 C-92.95856479234314 13.042804084719144 -96.98713533958693 14.998647245312974 -101 17 C-99.21016561703274 12.674566907829117 -96.74314348242643 10.781856137323167 -92.5048828125 8.880859375 C-89.42431758320424 7.740545581513736 -86.34299315619904 6.606281249485413 -83.25 5.5 C-81.56886108398436 4.896718749999998 -81.56886108398436 4.896718749999998 -79.853759765625 4.28125 C-71.28475649220246 1.2855170939461473 -63.00215980381688 -0.8424318047904862 -54 -2 C-52.801171874999994 -2.180468750000003 -51.60234374999999 -2.3609374999999986 -50.3671875 -2.546875 C-33.739928300827614 -4.5741515326244055 -16.325715897407093 -3.625515012374784 0 0 Z " fill="#EFF3F2" transform="translate(242,45)"/>
<path d="M0 0 C3.438666499024521 2.4272939993114164 5.587536418733293 5.0194208164301415 7 9 C7 10.319999999999993 7 11.639999999999986 7 13 C-1.580000000000041 13 -10.159999999999968 13 -19 13 C-18 5 -18 5 -16.25 2 C-11.088866988991185 -1.1760818529284904 -5.890739519070962 -0.9528025409537122 0 0 Z " fill="#F3F3F4" transform="translate(595,232)"/>
<path d="M0 0 C3 1 3 1 4 3 C4.101983098661435 5.108034757050632 4.1384272971298515 7.219344857815344 4.145263671875 9.329833984375 C4.150301589965807 10.30327758789062 4.150301589965807 10.30327758789062 4.1554412841796875 11.29638671875 C4.164957089245945 13.446308417050943 4.166894682337556 15.596152290655283 4.16796875 17.74609375 C4.17118081871547 19.238205286389302 4.174544852025178 20.73031650277585 4.1780548095703125 22.222427368164063 C4.184047596801406 25.35214976334771 4.1858945492706425 28.48184453587521 4.185302734375 31.611572265625 C4.185201085093695 35.62448259519192 4.1988553810844 39.63721609387565 4.2160749435424805 43.650084495544434 C4.227186245958137 46.73241491379571 4.229222214385572 49.814702459138175 4.228693008422852 52.897050857543945 C4.2298743598083774 54.37664461508035 4.234304812418941 55.85623943638052 4.242025375366211 57.33581352233887 C4.25180820098069 59.404259326812735 4.2489542669191 61.472319650520035 4.242919921875 63.540771484375 C4.244344940185556 64.71832504272459 4.245769958496112 65.89587860107423 4.2472381591796875 67.10911560058594 C4 70 4 70 2 73 C1.3400000000000318 73 0.67999999999995 73 0 73 C0 48.90999999999997 0 24.819999999999993 0 0 Z " fill="#F8F8F7" transform="translate(845,208)"/>
<path d="M0 0 C0.3299999999999841 0 0.6599999999999966 0 1 0 C1 21.44999999999999 1 42.89999999999998 1 65 C-8.007299270072991 60.49635036496352 -8.007299270072991 60.49635036496352 -12.25 56.5 C-13.059531250000006 55.747187499999995 -13.869062499999998 54.99437499999999 -14.703125 54.21875 C-15.461093750000003 53.48656249999999 -16.219062500000007 52.75437499999998 -17 52 C-17.757968750000003 51.30906249999998 -18.515937500000007 50.61812500000002 -19.296875 49.90625 C-21 48 -21 48 -21 45 C-17.3226238893443 45.55280817349728 -15.97653444806221 46.81937807820367 -13.6875 49.6875 C-11.445975654148697 52.482621157659594 -9.096727567800116 54.8333490897723 -6.370361328125 57.143798828125 C-5.739390411376945 57.679912872314446 -5.1084194946289045 58.21602691650389 -4.4583282470703125 58.76838684082031 C-3.9770799255371116 59.1748191833496 -3.495831604003911 59.58125152587888 -3 60 C-2.9657466888427706 58.91671920776366 -2.9657466888427706 58.91671920776366 -2.9308013916015625 57.811553955078125 C-2.71501176682753 51.01316148035585 -2.4947738030746933 44.21492620004386 -2.2695093154907227 37.41684150695801 C-2.153850083499094 33.921685789669255 -2.0399255375265994 30.426491302936313 -1.929931640625 26.93115234375 C-1.8034685669613708 22.914860127476913 -1.6695215799557843 18.89884816518807 -1.53515625 14.8828125 C-1.477276840209953 12.995277557373043 -1.477276840209953 12.995277557373043 -1.4182281494140625 11.069610595703125 C-1.3782621765136724 9.90855804443359 -1.3382962036132824 8.747505493164056 -1.297119140625 7.55126953125 C-1.2638099670410128 6.52534698486329 -1.2305007934570256 5.499424438476552 -1.1961822509765625 4.442413330078125 C-1 2 -1 2 0 0 Z " fill="#1C8E8A" transform="translate(129,222)"/>
<path d="M0 0 C2.5 1.5 2.5 1.5 4 4 C4.6044339229891875 6.809178613511392 4.660408536420846 9.197570732405481 4 12 C1.4576729173721787 14.990973038385661 -0.15746970279587913 15.842025569274227 -4 16.5625 C-8.136075535897021 15.786985837019316 -9.549995527621945 14.386770888287245 -12 11 C-12.624915234580158 7.04220351432555 -12.610068392886205 4.991361138440027 -10.5 1.5625 C-6.974411163971354 -0.6409930225179039 -4.049855281080909 -0.7966928421798514 0 0 Z " fill="#185078" transform="translate(652,88)"/>
<path d="M0 0 C4.6200000000000045 0 9.240000000000009 0 14 0 C14 19.47 14 38.94 14 59 C9.379999999999995 59 4.759999999999991 59 0 59 C0 39.53 0 20.060000000000002 0 0 Z M2 1 C2 19.47999999999999 2 37.96000000000001 2 57 C5.6299999999999955 57 9.259999999999991 57 13 57 C13 38.51999999999998 13 20.039999999999992 13 1 C9.370000000000005 1 5.740000000000009 1 2 1 Z " fill="#174571" transform="translate(641,113)"/>
<path d="M0 0 C3.2999999999999545 0 6.600000000000023 0 10 0 C10 0.3300000000000125 10 0.6599999999999966 10 1 C7.029999999999973 1 4.059999999999945 1 1 1 C1 24.099999999999994 1 47.19999999999999 1 71 C4.2999999999999545 71 7.600000000000023 71 11 71 C11 55.81999999999999 11 40.639999999999986 11 25 C11.990000000000009 25 12.980000000000018 25 14 25 C13.669999999999959 40.84 13.340000000000032 56.68000000000001 13 73 C8.710000000000036 73 4.419999999999959 73 0 73 C0 48.90999999999997 0 24.819999999999993 0 0 Z " fill="#093867" transform="translate(652,208)"/>
<path d="M0 0 C4.289999999999964 0 8.580000000000041 0 13 0 C13 0.3299999999999983 13 0.6599999999999966 13 1 C9.039999999999964 1 5.080000000000041 1 1 1 C1 19.47999999999999 1 37.96000000000001 1 57 C4.960000000000036 57 8.919999999999959 57 13 57 C13 45.120000000000005 13 33.24000000000001 13 21 C13.659999999999968 20.670000000000016 14.32000000000005 20.340000000000003 15 20 C15 32.870000000000005 15 45.74000000000001 15 59 C10.049999999999955 59 5.100000000000023 59 0 59 C0 39.53 0 20.060000000000002 0 0 Z " fill="#123D6A" transform="translate(667,113)"/>
<path d="M0 0 C0.9900000000000091 0.9900000000000091 1.9800000000000182 1.9799999999999898 3 3 C3 3.6599999999999966 3 4.319999999999993 3 5 C3.659999999999968 5 4.32000000000005 5 5 5 C5.659999999999968 6.97999999999999 6.32000000000005 8.960000000000008 7 11 C5.67999999999995 10.669999999999987 4.360000000000014 10.340000000000003 3 10 C3 22.539999999999992 3 35.079999999999984 3 48 C2.009999999999991 47.670000000000016 1.0199999999999818 47.34000000000003 0 47 C0 31.49000000000001 0 15.97999999999999 0 0 Z " fill="#E6EAEB" transform="translate(665,233)"/>
<path d="M0 0 C7.32587193411689 -0.3388488235688385 13.796988169375567 0.5020548104684934 20.875 2.375 C21.862260742187516 2.6332153320312486 22.849521484375003 2.891430664062497 23.86669921875 3.157470703125 C37.70447898285971 7.026608580272196 51.392789534934536 13.794131931467163 62.8125 22.5625 C63.60269531250003 23.161914062500003 64.392890625 23.761328125000006 65.20703125 24.37890625 C65.7987109375 24.913867187500003 66.39039062500001 25.448828125000006 67 26 C67 26.659999999999997 67 27.319999999999993 67 28 C64.2734510497761 26.682483142499308 61.713905008628785 25.241223170395898 59.1640625 23.609375 C50.024726206147136 17.835510171625103 41.17376667808179 12.756299214835373 31 9 C30.293432617187477 8.738481445312502 29.58686523437501 8.476962890625003 28.85888671875 8.20751953125 C19.312764663953715 4.721449135943502 10.149308945443096 2.040035192289224 0 1 C0 0.6700000000000017 0 0.3400000000000034 0 0 Z " fill="#EAF1F0" transform="translate(227,44)"/>
<path d="M0 0 C3.0731250000000045 -0.041249999999990905 6.146250000000009 -0.08250000000001023 9.3125 -0.125 C10.27712158203127 -0.14320800781248977 11.241743164062484 -0.16141601562500796 12.235595703125 -0.18017578125 C12.999606933593725 -0.1851708984374909 13.763618164062507 -0.19016601562501023 14.55078125 -0.1953125 C15.721209716796864 -0.21102294921874432 15.721209716796864 -0.21102294921874432 16.915283203125 -0.22705078125 C19 0 19 0 22 2 C21 3 21 3 18.99609375 3.1328125 C13.570314808333421 3.1162452360559882 8.368077731310052 2.795270775008902 3 2 C3.023203125000009 2.9410156250000057 3.046406250000018 3.8820312500000114 3.0703125 4.8515625 C3.088359374999982 6.0967968749999955 3.1064062500000205 7.342031249999991 3.125 8.625 C3.148203125000009 9.854765624999999 3.171406250000018 11.084531249999998 3.1953125 12.3515625 C3.0030428045735675 15.943160410565866 2.3025855625959366 18.66661174926233 1 22 C0.6700000000000159 22 0.339999999999975 22 0 22 C0 14.740000000000009 0 7.47999999999999 0 0 Z " fill="#E9EEEF" transform="translate(395,135)"/>
<path d="M0 0 C0.3299999999999841 0 0.660000000000025 0 1 0 C1.1237499999999727 0.7837499999999977 1.2475000000000023 1.5674999999999955 1.375 2.375 C1.7911799319618922 5.140578215738117 1.7911799319618922 5.140578215738117 4 7 C-19.31034482758622 8.931034482758605 -19.31034482758622 8.931034482758605 -28 7 C-28 6.339999999999975 -28 5.680000000000007 -28 5 C-26.081875000000025 5.069609375000027 -26.081875000000025 5.069609375000027 -24.125 5.140625 C-22.416690209435444 5.17817027012228 -20.70835491701837 5.214567453572954 -19 5.25 C-17.741230468750018 5.300273437499982 -17.741230468750018 5.300273437499982 -16.45703125 5.3515625 C-10.389941108723974 5.445625913043045 -6.118198616678512 4.297429526541578 -1 1 C-0.6700000000000159 0.6700000000000159 -0.339999999999975 0.339999999999975 0 0 Z " fill="#E2E7EA" transform="translate(497,276)"/>
<path d="M0 0 C0.3299999999999983 0 0.6599999999999966 0 1 0 C1 10.22999999999999 1 20.460000000000008 1 31 C0.3400000000000034 30.670000000000016 -0.3199999999999932 30.340000000000003 -1 30 C-0.9793750000000045 29.257499999999993 -0.9587499999999949 28.514999999999986 -0.9375 27.75 C-0.8799986259693782 25.14393964349202 -0.8799986259693782 25.14393964349202 -1.4921875 23.2890625 C-2.210285116707084 20.052099396997278 -2.170971505801205 16.937310237437572 -2.1875 13.625 C-2.201679687500004 12.338515625000014 -2.2158593749999937 11.052031249999999 -2.23046875 9.7265625 C-2.007141405250991 6.115472891685613 -1.3129303153169474 3.3523833347618393 0 0 Z " fill="#F9F9F9" transform="translate(74,165)"/>
<path d="M0 0 C3.749934788070277 -0.05811773038259105 7.499753518001398 -0.09363593145282323 11.25 -0.125 C12.84521484375 -0.15013671875000512 12.84521484375 -0.15013671875000512 14.47265625 -0.17578125 C16.009863281249977 -0.18544921874999432 16.009863281249977 -0.18544921874999432 17.578125 -0.1953125 C18.520751953125 -0.20578613281250568 19.46337890625 -0.21625976562499716 20.4345703125 -0.22705078125 C23 0 23 0 27 2 C22.710000000000036 2 18.41999999999996 2 14 2 C13.669999999999959 3.980000000000004 13.340000000000032 5.959999999999994 13 8 C12.340000000000032 7.401875000000004 11.67999999999995 6.803749999999994 11 6.1875 C7.4181600303317055 3.5757416887835234 4.186222739427308 2.4190585557380757 0 1 C0 0.6700000000000017 0 0.3400000000000034 0 0 Z " fill="#F9F9F9" transform="translate(760,110)"/>
<path d="M0 0 C0.7488647460937727 0.005236816406238631 1.4977294921874886 0.010473632812505684 2.269287109375 0.015869140625 C3.0781738281249886 0.01909179687498863 3.8870605468749773 0.022314453125005684 4.720458984375 0.025634765625 C5.5705957031249795 0.034013671874987494 6.420732421875016 0.04239257812500341 7.296630859375 0.051025390625 C8.150634765625 0.05553710937499545 9.004638671875 0.060048828124990905 9.884521484375 0.064697265625 C12.00108749392001 0.07652165673977152 14.117617709797173 0.09445770459277014 16.234130859375 0.113525390625 C15.811558103868776 1.5970254897425207 15.370567636537317 3.0752896256965983 14.921630859375 4.551025390625 C14.556181640625027 5.786591796874973 14.556181640625027 5.786591796874973 14.183349609375 7.047119140625 C13.870107421874991 7.729033203125027 13.556865234374982 8.410947265624998 13.234130859375 9.113525390625 C12.244130859374991 9.443525390624984 11.254130859374982 9.773525390625025 10.234130859375 10.113525390625 C10.894130859375025 7.803525390624998 11.554130859374993 5.4935253906249955 12.234130859375 3.113525390625 C9.942139084548955 3.254156739733105 7.65053900176207 3.4011848179337107 5.359130859375 3.551025390625 C4.082958984375011 3.632236328124975 2.8067871093750227 3.713447265625007 1.491943359375 3.797119140625 C-1.6488706627040983 3.905585660968484 -1.6488706627040983 3.905585660968484 -3.765869140625 5.113525390625 C-2.6496667945839363 0.17034357244318699 -2.6496667945839363 0.17034357244318699 0 0 Z " fill="#134773" transform="translate(436.765869140625,254.886474609375)"/>
<path d="M0 0 C7.18597711298932 -0.3208971943979435 13.494276894135197 0.48918558017545166 20.4375 2.3125 C21.321152343749986 2.525839843749999 22.2048046875 2.7391796874999983 23.115234375 2.958984375 C30.178299605544908 4.7583203843023085 30.178299605544908 4.7583203843023085 33 8 C31 9 31 9 27.32421875 7.85546875 C25.777230302939557 7.303429981279756 24.23174011223051 6.747180742287085 22.6875 6.1875 C15.131643738498497 3.541509798049347 7.98837423749498 1.8185966533122055 0 1 C0 0.6700000000000017 0 0.3400000000000034 0 0 Z " fill="#DBE9E8" transform="translate(227,44)"/>
<path d="M0 0 C0.660000000000025 0 1.3199999999999932 0 2 0 C2.329999999999984 1.6500000000000057 2.660000000000025 3.3000000000000114 3 5 C-0.06533164361212584 6.532665821806063 -3.267542719173832 6.10276470908741 -6.625 6.0625 C-7.331406249999986 6.0579882812500045 -8.037812499999973 6.053476562500009 -8.765625 6.048828125 C-10.510452750867955 6.037038748304951 -12.255236997283248 6.019103244555282 -14 6 C-14.329999999999984 5.009999999999991 -14.660000000000025 4.02000000000001 -15 3 C-10.050000000000011 3 -5.100000000000023 3 0 3 C0 2.009999999999991 0 1.0200000000000102 0 0 Z " fill="#2C5D82" transform="translate(451,220)"/>
<path d="M0 0 C5.103289454822573 0.8748496208267227 7.813910841230268 4.121282763236877 11 8 C13.327937216385465 11.84191037109764 14.411255239916557 15.476192360917977 14 20 C13.339999999999975 20 12.680000000000007 20 12 20 C11.670000000000016 20.659999999999997 11.339999999999975 21.319999999999993 11 22 C10.961328125000023 21.021601562499995 10.961328125000023 21.021601562499995 10.921875 20.0234375 C10.497214565254012 13.479806255504727 9.482137886225189 9.133072719146398 4.40234375 4.5625 C2.9512990755587794 3.3550112874626308 1.4773467606677286 2.175162195985692 0 1 C0 0.6700000000000017 0 0.3400000000000034 0 0 Z " fill="#DDE4E8" transform="translate(425,91)"/>
<path d="M0 0 C9.611814345991547 -0.5654008438818607 9.611814345991547 -0.5654008438818607 14 3 C15.47832259628558 5.956645192571273 15.060327826488106 8.742297369640852 15 12 C14.009999999999991 12.329999999999998 13.019999999999982 12.659999999999997 12 13 C11.340000000000032 9.700000000000003 10.67999999999995 6.400000000000006 10 3 C6.7000000000000455 2.3400000000000034 3.3999999999999773 1.6800000000000068 0 1 C0 0.6700000000000017 0 0.3400000000000034 0 0 Z " fill="#DCE3E7" transform="translate(644,87)"/>
<path d="M0 0 C0.660000000000025 0.3299999999999983 1.3199999999999932 0.6599999999999966 2 1 C1.339999999999975 4.299999999999997 0.6800000000000068 7.599999999999994 0 11 C-1.9800000000000182 11.659999999999997 -3.9599999999999795 12.319999999999993 -6 13 C-4.587079052657373 8.172520096579376 -2.570258462608024 4.283764104346702 0 0 Z " fill="#DDE6EB" transform="translate(437,111)"/>
<path d="M0 0 C3.6299999999999955 0 7.259999999999991 0 11 0 C12 3 12 3 11.0625 5.1875 C10.711874999999964 5.785624999999996 10.361250000000041 6.383750000000006 10 7 C9.463750000000005 6.381249999999994 8.927500000000009 5.762500000000003 8.375 5.125 C5.688969771128313 2.721709795220093 3.4458543799055406 1.939778467246981 0 1 C0 0.6700000000000017 0 0.3400000000000034 0 0 Z " fill="#DDE4E7" transform="translate(762,111)"/>
<path d="M0 0 C4.0081803048942675 3.674165279486374 6.525916151234242 7.1434650376079105 9 12 C9 12.659999999999997 9 13.319999999999993 9 14 C5.113051164760236 12.538241463670516 3.9918477203715383 10.698738369184042 2.25 7 C1.822031250000009 6.113124999999997 1.3940625000000182 5.226249999999993 0.953125 4.3125 C0 2 0 2 0 0 Z " fill="#12416E" transform="translate(669,236)"/>
<path d="M0 0 C0 0.3299999999999983 0 0.6599999999999966 0 1 C-2.9160260919766188 1.5040045097243535 -5.832720924294165 2.003346660424313 -8.75 2.5 C-9.987500000000011 2.714628906249999 -9.987500000000011 2.714628906249999 -11.25 2.93359375 C-12.049218749999994 3.0689453124999986 -12.848437499999989 3.204296874999997 -13.671875 3.34375 C-14.405029296875 3.469433593749997 -15.13818359375 3.5951171875000014 -15.8935546875 3.724609375 C-18 4 -18 4 -22 4 C-22 3.3400000000000034 -22 2.6799999999999997 -22 2 C-14.585694088821299 0.16282685386722306 -7.623144744646339 -0.23576736323648362 0 0 Z " fill="#E5EEED" transform="translate(200,43)"/>
<path d="M0 0 C2.7086066485745732 -0.05429278360170997 5.416109009678962 -0.09381211030880365 8.125 -0.125 C8.885546875000045 -0.1417578125000034 9.646093749999977 -0.15851562500000682 10.4296875 -0.17578125 C15.032707312279626 -0.21546245527827068 18.664640035455136 0.24092423163835974 23 2 C23 2.6599999999999966 23 3.319999999999993 23 4 C21.528535156249973 3.5088671875000017 21.528535156249973 3.5088671875000017 20.02734375 3.0078125 C15.830195077210078 1.808627164917155 11.899358979668477 1.7718359254607634 7.5625 1.875 C6.465185546874977 1.8885351562500006 6.465185546874977 1.8885351562500006 5.345703125 1.90234375 C3.5636570210992886 1.9256384703124212 1.7817824120952537 1.961498099138396 0 2 C0 1.3400000000000034 0 0.6800000000000068 0 0 Z " fill="#D3DDE3" transform="translate(535,110)"/>
<path d="M0 0 C3.53586014070072 3.1732078185775663 5.58578031022239 5.167436952594187 6 10 C5.339999999999975 10 4.680000000000007 10 4 10 C1.1605947966006624 6.325475619130259 0 4.731134187531779 0 0 Z " fill="#D5E1E6" transform="translate(394,252)"/>
<path d="M0 0 C1.0528417968749864 0.013535156249986358 1.0528417968749864 0.013535156249986358 2.126953125 0.02734375 C3.855615252379522 0.05086296261740131 5.584101454805392 0.08673287353812498 7.3125 0.125 C3.8679926329101875 2.4213382447265417 1.374377172163804 2.665164848434273 -2.6875 3.125 C-2.6875 2.4650000000000034 -2.6875 1.8050000000000068 -2.6875 1.125 C-5.327499999999986 1.4550000000000125 -7.967500000000001 1.7849999999999966 -10.6875 2.125 C-7.0066264703961 -0.3289156864026097 -4.243944115755681 -0.10302758824431635 0 0 Z " fill="#DBE9E8" transform="translate(180.6875,179.875)"/>
<path d="M0 0 C0.9900000000000091 0.3299999999999841 1.9800000000000182 0.660000000000025 3 1 C3.329999999999984 3.9700000000000273 3.660000000000025 6.939999999999998 4 10 C3.009999999999991 9.670000000000016 2.019999999999982 9.339999999999975 1 9 C-0.47832259628563634 6.043354807428727 -0.06032782648810553 3.2577026303591765 0 0 Z " fill="#DCE4E9" transform="translate(474,261)"/>
<path d="M0 0 C0.9900000000000091 0 1.9800000000000182 0 3 0 C3 1.980000000000004 3 3.9599999999999937 3 6 C1.0199999999999818 5.340000000000003 -0.9599999999999795 4.680000000000007 -3 4 C-1.6875 2 -1.6875 2 0 0 Z " fill="#D3DEE5" transform="translate(428,124)"/>
<path d="M0 0 C0.6638671874999886 0.27714843749998863 1.3277343749999773 0.5542968749999773 2.01171875 0.83984375 C3.3362304687499886 1.3831835937500045 3.3362304687499886 1.3831835937500045 4.6875 1.9375 C5.5576171875 2.2971484375000273 6.427734375 2.6567968749999977 7.32421875 3.02734375 C9.88179265352261 3.957031198141806 12.322132300995065 4.5416262497198545 15 5 C15 5.329999999999984 15 5.660000000000025 15 6 C4.4419134396355275 5.220956719817764 4.4419134396355275 5.220956719817764 0 3 C0 2.009999999999991 0 1.0199999999999818 0 0 Z " fill="#DFE5E8" transform="translate(395,277)"/>
<path d="M0 0 C0.3299999999999983 0 0.6599999999999966 0 1 0 C1 4.6200000000000045 1 9.240000000000009 1 14 C0.3400000000000034 14 -0.3199999999999932 14 -1 14 C-1.3299999999999983 12.02000000000001 -1.6599999999999966 10.039999999999992 -2 8 C-1.3400000000000034 8 -0.6800000000000068 8 0 8 C0 5.360000000000014 0 2.719999999999999 0 0 Z " fill="#E4EEED" transform="translate(75,188)"/>
<path d="M0 0 C-2.3845794793001005 1.5897196528667195 -4.630412397665964 2.867415933278366 -7.1875 4.125 C-7.902929687499977 4.478203124999993 -8.618359374999955 4.831406250000001 -9.35546875 5.1953125 C-9.898164062499973 5.460859374999998 -10.440859374999945 5.726406249999997 -11 6 C-10.640625 4.078125 -10.640625 4.078125 -10 2 C-6.621760238152433 0.12320013230691984 -3.8236770063898575 -0.21849582893655395 0 0 Z " fill="#ECEFF1" transform="translate(535,111)"/>
<path d="M0 0 C0 1.9799999999999898 0 3.960000000000008 0 6 C-1.3199999999999932 6.3300000000000125 -2.6399999999999864 6.659999999999997 -4 7 C-3.625 4.0625 -3.625 4.0625 -3 1 C-1 0 -1 0 0 0 Z " fill="#E9F0EE" transform="translate(340,223)"/>
<path d="M0 0 C0.660000000000025 0.3299999999999983 1.3199999999999932 0.6599999999999966 2 1 C1.339999999999975 4.299999999999997 0.6800000000000068 7.599999999999994 0 11 C-0.3299999999999841 11 -0.660000000000025 11 -1 11 C-1.0270042984610654 9.541767883101755 -1.0463978663682951 8.08339324606959 -1.0625 6.625 C-1.0741015625000045 5.812890624999994 -1.085703125000009 5.000781250000003 -1.09765625 4.1640625 C-1 2 -1 2 0 0 Z " fill="#F6F7F7" transform="translate(437,111)"/>
</svg>
